Coordinates
version=1
nRows=11
nColumns=42
inDegrees=yes

Units are S.I. units (second, meters, Newtons, ...)
If the header above contains a line with 'inDegrees', this indicates whether rotational values are in degrees (yes) or radians (no).

endheader
time	pelvis_tilt	pelvis_list	pelvis_rotation	pelvis_tx	pelvis_ty	pelvis_tz	hip_flexion_r	hip_adduction_r	hip_rotation_r	knee_angle_r	knee_adduction_r	knee_angle_r_beta	ankle_angle_r	subtalar_angle_r	mtp_angle_r	hip_flexion_l	hip_adduction_l	hip_rotation_l	knee_angle_l	knee_adduction_l	knee_angle_l_beta	ankle_angle_l	subtalar_angle_l	mtp_angle_l	lumbar_extension	lumbar_bending	lumbar_rotation	arm_flex_r	arm_add_r	arm_rot_r	elbow_flex_r	pro_sup_r	wrist_flex_r	wrist_dev_r	arm_flex_l	arm_add_l	arm_rot_l	elbow_flex_l	pro_sup_l	wrist_flex_l	wrist_dev_l
      1.46000000	      1.68078285	     -5.42998073	      4.46374552	     -0.64428017	      0.95626263	      0.30886187	     13.64166814	      1.99283680	    -10.72391668	      6.42843003	      5.66249169	      0.11219727	     -2.49418103	      6.59954266	     -7.55188103	    -17.72220666	     -7.03659060	     -7.02871283	     16.68408234	      0.61756624	      0.29119217	     11.21632877	     18.76087989	     -7.55188103	     -4.38156873	     10.70707767	     -9.18141535	    -12.77472789	    -11.49736712	      2.15956010	     22.62425553	     90.00000001	      0.00000000	      0.00000000	      3.44601663	    -18.41457206	     19.37991529	     44.37435909	     90.00000001	      0.00000000	      0.00000000
      1.47000000	      1.74305115	     -5.43921697	      4.31638586	     -0.63276725	      0.95850517	      0.30973272	     12.93283888	      1.97448244	    -10.22645196	      6.66972993	      6.00663646	      0.11640875	     -2.17481626	      6.68126337	     -7.55125111	    -17.19414879	     -7.31463010	     -6.70586678	     18.77073432	      0.76988021	      0.32761112	      9.12794768	     18.36110872	     -7.55125111	     -4.44692972	     10.83877785	     -8.79452747	    -12.67565815	    -11.55597913	      2.11563828	     22.62833732	     90.00000001	      0.00000000	      0.00000000	      2.79043574	    -18.16047184	     19.43476328	     44.24476867	     90.00000001	      0.00000000	      0.00000000
      1.48000000	      1.36343326	     -5.64525345	      4.15857533	     -0.62134826	      0.96036456	      0.31078557	     12.48057527	      2.34536254	     -9.29326676	      6.32168163	      6.06312241	      0.11033416	     -2.13201911	      5.88119256	     -7.54869695	    -15.62680739	     -7.87798703	     -7.16479319	     21.82374772	      0.73373946	      0.38089625	      6.58419112	     17.51954739	     -7.54869695	     -3.96474241	     11.14499336	     -8.53866112	    -12.40778717	    -11.55354468	      1.65581159	     22.31720912	     90.00000001	      0.00000000	      0.00000000	      1.96332875	    -17.83330401	     19.34345810	     43.98126393	     90.00000001	      0.00000000	      0.00000000
      1.49000000	      1.41931509	     -5.58695332	      3.98151752	     -0.61004431	      0.96265486	      0.31161903	     11.60440226	      2.37302685	     -8.85846389	      6.18538952	      6.23989455	      0.10795541	     -1.69871688	      6.02225508	     -7.54770338	    -14.57427540	     -8.10328582	     -7.07193498	     24.62943188	      0.75847491	      0.42986468	      3.75026532	     16.68703851	     -7.54770338	     -4.04764239	     11.18956025	     -8.14771470	    -12.20278517	    -11.63261692	      1.54103733	     22.34114531	     90.00000001	      0.00000000	      0.00000000	      1.26183382	    -17.57887596	     19.40600468	     43.80181465	     90.00000001	      0.00000000	      0.00000000
      1.50000000	      1.40348004	     -5.54180451	      3.81230226	     -0.59891861	      0.96471137	      0.31254143	     10.77273578	      2.45832732	     -8.48338759	      5.95509727	      6.32107641	      0.10393605	     -1.26289766	      6.21295548	     -7.54677749	    -13.21820763	     -8.35928966	     -6.95946639	     27.70479886	      0.75273518	      0.48353996	      0.82772312	     15.53780744	     -7.54677749	     -4.06282409	     11.21965965	     -7.74224541	    -11.98941339	    -11.70537076	      1.42923842	     22.39357612	     90.00000001	      0.00000000	      0.00000000	      0.57247660	    -17.34561169	     19.43357895	     43.61606659	     90.00000001	      0.00000000	      0.00000000
      1.51000000	      1.08181293	     -5.60793468	      3.54364557	     -0.58814926	      0.96629137	      0.31385226	     10.29764529	      2.74311339	     -7.98025361	      5.65856591	      6.29515222	      0.09876061	     -1.10803930	      6.11581203	     -7.54508953	    -11.35621801	     -8.77151296	     -6.59312853	     30.99796706	      0.97935519	      0.54101659	     -1.90866199	     13.72974577	     -7.54508953	     -3.75957095	     11.31728706	     -7.27452967	    -11.73859110	    -11.73623315	      1.18166603	     22.42747900	     90.00000001	      0.00000000	      0.00000000	     -0.14752453	    -17.10542057	     19.36515316	     43.40956866	     90.00000001	      0.00000000	      0.00000000
      1.52000000	      1.26419938	     -5.44750977	      3.40944051	     -0.57742712	      0.96813619	      0.31466114	      9.20544574	      2.71433603	     -7.80684136	      5.31349176	      6.37627565	      0.09273793	     -0.57099449	      6.44282242	     -7.54425338	     -9.96265148	     -8.86538672	     -6.45068325	     34.16744994	      0.84164917	      0.59633450	     -4.41758885	     12.36553304	     -7.54425338	     -4.04916965	     11.21264284	     -6.87828076	    -11.47172874	    -11.84032576	      1.09688351	     22.69400323	     90.00000001	      0.00000000	      0.00000000	     -0.75762022	    -16.91061578	     19.35394886	     43.23061075	     90.00000001	      0.00000000	      0.00000000
      1.53000000	      1.22392394	     -5.42441889	      3.21384393	     -0.56692804	      0.96951340	      0.31570732	      8.38484293	      2.87344191	     -7.64994586	      4.94922110	      6.37043171	      0.08638020	     -0.19514865	      6.85188759	     -7.54329608	     -8.23112221	     -9.11253433	     -6.22324896	     37.38172109	      0.80654528	      0.65243411	     -6.54706385	     10.37255180	     -7.54329608	     -4.09642747	     11.21920885	     -6.42099261	    -11.20862904	    -11.95475140	      1.04200871	     22.95290243	     90.00000001	      0.00000000	      0.00000000	     -1.39064897	    -16.71387308	     19.29919554	     43.07215446	     90.00000001	      0.00000000	      0.00000000
      1.54000000	      1.23104363	     -5.36386915	      3.04327221	     -0.55668022	      0.97067888	      0.31671865	      7.55083884	      2.98514997	     -7.57522684	      4.64426463	      6.34966839	      0.08105771	      0.23077537	      7.28792734	     -7.54236108	     -6.49928430	     -9.29990463	     -6.01062184	     40.50223113	      0.71147442	      0.70689729	     -7.97471770	      8.23800933	     -7.54236108	     -4.21540300	     11.16675547	     -5.99373697	    -10.90071293	    -12.08735021	      1.03669534	     23.29810288	     90.00000001	      0.00000000	      0.00000000	     -1.96464789	    -16.53009285	     19.20946116	     42.88008446	     90.00000001	      0.00000000	      0.00000000
      1.55000000	      1.06517059	     -5.31602570	      2.86369394	     -0.54692369	      0.97154525	      0.31788267	      7.04963204	      3.09384866	     -7.60922799	      4.57243635	      6.31529162	      0.07980407	      0.58012003	      7.72119639	     -7.54039658	     -4.53346925	     -9.51734154	     -5.35994693	     43.52511329	      0.98506738	      0.75965653	     -8.92362805	      5.24453208	     -7.54039658	     -4.19859508	     11.09381801	     -5.56671012	    -10.56221475	    -12.21581988	      1.22833076	     23.67951011	     90.00000001	      0.00000000	      0.00000000	     -2.51172468	    -16.32830230	     18.98785042	     42.60747198	     90.00000001	      0.00000000	      0.00000000
      1.56000000	      1.38165563	     -5.11269298	      2.73944224	     -0.53690979	      0.97271232	      0.31871303	      5.90310993	      2.99066210	     -7.59670293	      4.31876632	      6.38785871	      0.07537669	      1.17501940	      8.24719487	     -7.53970594	     -3.13779173	     -9.47089785	     -5.70443090	     46.19746865	      0.39066031	      0.80629793	     -8.96944335	      3.80628194	     -7.53970594	     -4.69580622	     10.87235681	     -5.15806857	    -10.16290567	    -12.34675352	      1.28619009	     24.10031073	     90.00000001	      0.00000000	      0.00000000	     -2.98609407	    -16.18860398	     18.94203499	     42.36130226	     90.00000001	      0.00000000	      0.00000000
